<?xml version="1.0" encoding="UTF-8" standalone="no"?>
<svg
   xmlns:dc="http://purl.org/dc/elements/1.1/"
   xmlns:cc="http://creativecommons.org/ns#"
   xmlns:rdf="http://www.w3.org/1999/02/22-rdf-syntax-ns#"
   xmlns:svg="http://www.w3.org/2000/svg"
   xmlns="http://www.w3.org/2000/svg"
   id="svg8"
   version="1.1"
   viewBox="0 0 188.63707 104.0784"
>
  <defs
     id="defs2" />
  <metadata
     id="metadata5">
    <rdf:RDF>
      <cc:Work
         rdf:about="">
        <dc:format>image/svg+xml</dc:format>
        <dc:type
           rdf:resource="http://purl.org/dc/dcmitype/StillImage" />
        <dc:title></dc:title>
      </cc:Work>
    </rdf:RDF>
  </metadata>
  <g
     transform="translate(108.40579,-61.987948)"
     id="layer1">
    <path
       id="path826"
       transform="scale(0.26458333)"
       d="m -362.14648,234.28516 v 22.73632 96.21485 l 19.03125,-5.09961 v -91.11524 -3.69726 H 92.792969 v 16.33398 l 19.037111,-5.09961 v -30.27343 z m 26.43554,26.43554 v 85.4336 l 19.03711,-5.10157 V 279.75781 H 55.101562 l 30.294922,-8.11719 V 260.7207 Z m 636.9336,9.28125 c -0.0736,-0.0141 -0.15312,-0.008 -0.24219,0.0156 l -65.79297,17.6289 c -0.59379,0.15911 -0.99023,0.87746 -0.99023,1.64454 v 26.23437 c 0,1.84099 0.23799,1.47158 0.55468,1.38672 l 9.02539,-2.41992 v 57.3789 l -8.98632,2.40821 c -0.35628,0.0955 -0.59375,1.38488 -0.59375,2.76562 v 24.24024 c 0,1.84099 0.47561,1.55976 0.99023,1.42187 l 67.13867,-17.98828 c 0.75214,-0.20153 0.91016,-1.31867 0.91016,-2.39258 v -45.25781 c 0,-2.14782 -0.15845,-2.87308 -0.43555,-2.79883 l -14.48828,3.88281 c -0.63338,0.16972 -0.75195,1.88879 -0.75195,3.26954 v 18.71679 l -23.19727,6.2168 v -15.49609 l 12.34961,-3.3086 c 0.47503,-0.12728 0.95117,-0.56173 0.95117,-1.78906 v -24.08594 c 0,-1.22733 -0.15882,-1.49279 -0.55468,-1.38672 l -12.7461,3.41602 V 309.13086 L 287.24414,303 v 19.33008 c 0,1.07391 0.23657,1.00979 0.51367,0.93554 l 13.61719,-3.64843 c 0.39586,-0.10607 0.51562,-1.21194 0.51562,-2.7461 v -43.72265 c 0,-2.01359 -0.15272,-3.04753 -0.66796,-3.14649 z m -69.1875,18.55274 c -0.0946,-0.0202 -0.19023,-0.0141 -0.2793,0.01 l -38.59766,10.3418 c -0.35627,0.0955 -0.63281,1.09153 -0.63281,3.08594 v 24.39258 c 0,0.92049 0.31651,1.4487 0.75195,1.33203 l 8.75,-2.34375 v 57.22461 l -8.98632,2.4082 c -0.23752,0.0636 -0.51563,0.90491 -0.51563,3.05273 v 23.93164 c 0,1.07392 0.19865,2.0955 0.83203,1.92579 l 38.63672,-10.35352 c 0.51462,-0.13789 0.59375,-0.92463 0.59375,-2.76562 v -24.39454 c 0,-1.07391 -0.19789,-1.63341 -0.59375,-1.52734 l -8.98633,2.4082 v -57.3789 l 8.98633,-2.40625 c 0.31669,-0.0849 0.59375,-0.77444 0.59375,-2.3086 V 289.7229 c 0,-0.80544 -0.26883,-1.10741 -0.55273,-1.16797 z m -534.37891,2.51758 v 46.14062 l 172.19336,-46.14062 z m 183.11914,0 v 40.83984 109.75391 l 19.04492,-120.30274 113.052737,-30.29101 z m 282.06836,16.06054 c -0.29124,0.006 -0.5009,0.0313 -0.61719,0.0625 l -42.51562,11.39258 c -0.63338,0.16971 -0.79297,2.05392 -0.79297,3.28125 v 22.0918 c 0,2.14782 0.47575,1.71265 0.83203,1.61718 l 8.74805,-2.34374 v 60.75195 l -8.70899,2.33398 c -0.79172,0.21214 -0.87109,3.14798 -0.87109,5.44922 v 18.25781 c 0,3.8354 0.87038,3.60082 1.66211,3.38868 l 39.66601,-10.62891 c 8.86731,-2.37599 29.65039,-16.53582 29.65039,-65.62891 0,-46.16859 -22.68409,-50.12231 -27.05273,-50.02539 z m -71.322266,19.68946 c -1.589255,-0.022 -3.240306,0.1861 -4.951172,0.64453 l -7.83789,2.10156 c -13.103032,3.51095 -21.891938,19.36515 -25.335938,33.02148 -2.018896,8.05834 -4.15625,19.06305 -4.15625,30.72266 0,8.89812 1.030087,22.73678 4.513672,31.77539 4.512827,11.52431 11.242315,23.22195 27.472656,18.87305 l 7.164063,-1.91992 c 19.793095,-5.30355 27.988285,-40.32919 27.988285,-68.4043 0,-24.88694 -9.49463,-46.60146 -24.857426,-46.81445 z m 66.814456,8.51953 c 2.42025,0.39143 8.99609,7.58361 8.99609,27.86328 0,20.71114 -6.84798,32.21182 -11.40039,33.43164 l -7.2832,1.95117 v -60.75195 l 9.26172,-2.48242 c 0.12123,-0.0325 0.26443,-0.0378 0.42578,-0.0117 z m -302.92578,6.77929 c -0.0459,-0.004 -0.0928,3.5e-4 -0.14258,0.0137 l -11.47656,3.07421 c -0.33509,0.0898 -0.71311,0.6509 -0.79688,1.89844 l -0.54297,7.03711 c -2.13616,-2.94977 -6.19938,-7.06784 -12.02148,-5.50781 l -11.51953,3.08594 c -6.78547,1.81816 -12.39701,7.30403 -15.28711,14.05078 -2.30371,5.05825 -6.86914,15.31715 -6.86914,30.63086 0,10.87273 3.30849,24.0748 10.17773,29.43164 3.85348,2.94903 13.52871,4.0302 16.75391,3.16601 l 12.14648,-2.94726 c 0.5864,-0.15713 2.93359,0.89759 2.93359,6.71679 0,5.05353 -2.51386,6.64608 -2.9746,6.76954 l -15.1211,4.05273 c -0.46074,0.12346 -7.24627,1.3279 -8.08398,-8.55469 -0.0838,-1.04951 -0.29382,-1.60541 -0.62891,-1.51562 l -14.95312,4.00586 c -0.33509,0.0898 -0.45899,1.1972 -0.45899,1.96289 v 31.23828 c 0,1.2251 0.12477,1.80512 0.41797,1.72656 l 14.24023,-3.81641 c 0.2932,-0.0786 0.54514,-0.45167 0.62891,-1.69921 l 0.25195,-8.94922 c 2.97388,4.25667 7.99935,8.26822 12.73243,7 l 11.35156,-3.04102 c 5.98964,-1.60492 23.24609,-11.12887 23.24609,-46.19726 0,-24.50194 -8.79524,-28.42305 -11.22461,-29.91602 -2.51313,-1.31739 -12.14824,-1.64625 -16.29492,-0.53516 l -8,1.83789 c -1.67542,0.44893 -6.70117,2.10217 -6.70117,-5.55468 0,-7.19745 3.09934,-8.48895 4.14648,-8.76953 l 12.85938,-3.44532 c 1.34034,-0.35914 5.90488,0.40913 7.28711,8.76758 0.0838,0.74324 0.29339,0.68747 0.46094,0.64258 l 13.86523,-3.71484 c 0.33508,-0.0898 0.54492,-0.91242 0.54492,-1.98438 v -28.02344 c 0,-1.00496 -0.25931,-2.88237 -0.94726,-2.9375 z m 165.445309,3.63672 c -1.589255,-0.022 -3.242259,0.18611 -4.953125,0.64453 l -7.8378909,2.10157 c -13.1030315,3.51094 -21.8919381,19.36514 -25.3359371,33.02148 -2.018896,8.05834 -4.15625,19.06305 -4.15625,30.72266 0,8.89812 1.030086,22.73678 4.513672,31.77539 4.512826,11.52431 11.2423146,23.22195 27.472656,18.87304 l 7.166015,-1.91992 c 19.793099,-5.30354 27.986328,-40.32919 27.986329,-68.40429 0,-24.88694 -9.49267,-46.60146 -24.855469,-46.81446 z m 63.011719,9.33789 c 5.914734,0.47088 9.392578,16.38296 9.392578,29.1836 0,13.80743 -3.562933,30.71689 -10.173828,32.48828 -5.858758,1.56985 -10.371094,-13.17435 -10.371094,-29.58985 0,-15.495 4.868513,-30.60713 9.935547,-31.96484 0.415655,-0.11137 0.822481,-0.14858 1.216797,-0.11719 z m -108.835938,2.25977 -36.816406,9.86328 c -0.593793,0.15911 -0.830078,1.91027 -0.830078,3.29102 v 23.16601 c 0,1.38074 0.276013,1.76623 0.671875,1.66016 l 7.996093,-2.14258 v 16.10937 l -18.841796,5.04883 v -16.10937 l 7.599609,-2.03516 c 0.593793,-0.15911 0.990234,-0.72561 0.990234,-2.25976 v -23.62696 c 0,-1.38074 -0.198794,-2.40072 -0.673828,-2.27343 l -37.328123,10.00195 c -0.27711,0.0743 -0.43555,1.18976 -0.43555,2.26367 v 23.32031 c 0,1.99441 0.23748,2.54469 0.59375,2.44922 l 9.183595,-2.46094 v 57.6836 l -9.144535,2.45117 c -0.23751,0.0636 -0.43554,1.18995 -0.43554,1.95703 v 25.31445 c 0,1.53416 0.23761,2.08429 0.43554,2.03125 l 37.210941,-9.9707 c 0.277104,-0.0743 0.59375,-0.77374 0.59375,-1.84766 v -26.08007 c 0,-0.9205 -0.158967,-1.49138 -0.396484,-1.42774 l -8.193359,2.19531 v -16.56835 l 18.841796,-5.05079 v 16.57032 l -8.193359,2.19531 c -0.277103,0.0742 -0.474609,0.74054 -0.474609,1.81445 v 25.00781 c 0,1.99441 0.197364,2.55418 0.632812,2.4375 l 37.171875,-9.96093 c 0.554207,-0.1485 0.830078,-0.83479 0.830078,-2.67578 v -23.7793 c 0,-2.76149 -0.513629,-2.93059 -1.107422,-2.77149 l -8.472656,2.26954 v -57.68555 l 8.75,-2.34375 c 0.514621,-0.13789 0.632813,-2.16437 0.632813,-3.23828 v -21.9375 c 0,-1.99441 -0.395154,-2.96154 -0.791016,-2.85547 z M -207,358.73047 c -0.10013,-0.0186 -0.20263,-0.0116 -0.29688,0.0137 l -40.83789,10.94336 c -0.37697,0.10101 -0.66992,1.09906 -0.66992,3.08984 V 397.125 c 0,0.91882 0.33418,1.44181 0.79492,1.31836 l 9.25782,-2.48047 v 57.12109 l -9.50782,2.54688 c -0.25131,0.0673 -0.54492,0.91272 -0.54492,3.05664 v 23.88867 c 0,1.07196 0.20874,2.08778 0.87891,1.90821 l 40.88086,-10.95313 c 0.54451,-0.1459 0.6289,-0.93384 0.6289,-2.77148 v -24.34961 c 0,-1.07196 -0.21005,-1.62786 -0.6289,-1.51563 l -9.50781,2.54688 v -57.27344 l 9.50781,-2.54688 c 0.33508,-0.0898 0.6289,-0.78113 0.6289,-2.3125 v -25.42187 c 0,-0.80397 -0.28358,-1.10036 -0.58398,-1.15625 z m -44.58984,11.88281 -38.95313,10.4375 c -0.62828,0.16835 -0.88086,1.9206 -0.88086,3.29883 v 23.12305 c 0,1.37823 0.29404,1.75871 0.71289,1.64648 l 8.46094,-2.26562 v 16.07812 l -19.9375,5.34375 v -16.08008 l 8.04102,-2.15429 c 0.62828,-0.16835 1.04882,-0.74012 1.04882,-2.27149 v -23.58398 c 0,-1.37824 -0.21026,-2.39445 -0.71289,-2.25977 l -39.49804,10.58399 c -0.2932,0.0786 -0.46094,1.19561 -0.46094,2.26757 v 23.27735 c 0,1.99078 0.25193,2.5346 0.62891,2.43359 l 9.71679,-2.60351 v 57.58007 l -9.67578,2.5918 c -0.25131,0.0673 -0.46094,1.19525 -0.46094,1.96094 v 25.26953 c 0,1.53137 0.25151,2.07565 0.46094,2.01953 l 39.37305,-10.55078 c 0.2932,-0.0786 0.6289,-0.7796 0.6289,-1.85156 v -26.03321 c 0,-0.91882 -0.1686,-1.48726 -0.41992,-1.41992 l -8.66992,2.32422 v -16.53906 l 19.9375,-5.3418 v 16.53711 l -8.66992,2.32422 c -0.2932,0.0786 -0.50391,0.7464 -0.50391,1.81836 v 24.96289 c 0,1.99078 0.21114,2.54533 0.67188,2.42187 l 39.33007,-10.5371 c 0.5864,-0.15713 0.87891,-0.84791 0.87891,-2.68555 V 459 c 0,-2.75647 -0.54359,-2.91835 -1.17187,-2.75 l -8.96485,2.40234 v -57.58007 l 9.25781,-2.48047 c 0.54452,-0.1459 0.66993,-2.17023 0.66993,-3.24219 v -21.89844 c 0,-1.99078 -0.41904,-2.95012 -0.83789,-2.83789 z m 264.789059,3.41602 c 5.914734,0.47087 9.392578,16.38491 9.392578,29.18554 0,13.80743 -3.56098,30.7169 -10.171875,32.48828 -5.8587574,1.56985 -10.373047,-13.17629 -10.373047,-29.59179 0,-15.49501 4.8704667,-30.60714 9.9375,-31.96485 0.415655,-0.11137 0.820528,-0.14857 1.214844,-0.11718 z m -348.996099,19.16797 c -0.0521,-10e-4 -0.10842,0.008 -0.16601,0.0234 l -73.25781,19.62891 c -0.2932,0.0786 -0.50196,1.20734 -0.50196,2.2793 v 45.17578 c 0,1.22509 0.29296,1.91155 0.66993,1.81054 l 13.99023,-3.74804 c 0.25131,-0.0673 0.58594,-0.15656 0.58594,-1.22852 v -20.52148 l 11.22461,-3.00781 v 58.95898 l -10.00977,2.68164 c -0.25131,0.0673 -0.46094,1.3476 -0.46094,2.11328 v 24.04297 c 0,1.53137 0.2934,2.06638 0.46094,2.02148 l 41.92774,-11.23437 c 0.37697,-0.10101 0.62695,-0.32221 0.62695,-1.08789 v -26.33985 c 0,-0.76568 -0.24998,-0.851 -0.62695,-0.75 l -10.34571,2.77149 v -58.95703 l 12.02149,-3.2207 v 20.06054 c 0,1.83765 0.20767,1.78218 0.45898,1.71485 l 13.48828,-3.61524 c 0.37697,-0.10101 0.50196,-1.51202 0.50196,-2.58398 v -43.49219 c 0,-2.94789 -0.22311,-3.48915 -0.5879,-3.49609 z m 447.62696,81.19335 -19.037111,5.10157 V 608.61328 H -343.11523 V 557.9707 l -19.03125,5.09766 v 64.58398 h 473.97656 z m -26.433596,7.08399 -19.039062,5.10156 v 95.60352 H -316.67383 v -31.29492 l -19.03711,5.10156 V 601.2168 H 85.396484 Z m -33.367187,8.94141 -300.236327,80.44921 H 52.029297 Z m -209.064457,17.69336 -145.30859,38.93554 v 23.82031 h 36.19531 l -1.33398,-3.36718 z"
       style="color:#000000;font-style:normal;font-variant:normal;font-weight:normal;font-stretch:normal;font-size:medium;line-height:normal;font-family:sans-serif;font-variant-ligatures:normal;font-variant-position:normal;font-variant-caps:normal;font-variant-numeric:normal;font-variant-alternates:normal;font-feature-settings:normal;text-indent:0;text-align:start;text-decoration:none;text-decoration-line:none;text-decoration-style:solid;text-decoration-color:#000000;letter-spacing:normal;word-spacing:normal;text-transform:none;writing-mode:lr-tb;direction:ltr;text-orientation:mixed;dominant-baseline:auto;baseline-shift:baseline;text-anchor:start;white-space:normal;shape-padding:0;clip-rule:nonzero;display:inline;overflow:visible;visibility:visible;opacity:1;isolation:auto;mix-blend-mode:normal;color-interpolation:sRGB;color-interpolation-filters:linearRGB;solid-color:#000000;solid-opacity:1;vector-effect:none;fill:#ffffff;fill-opacity:1;fill-rule:nonzero;stroke:none;stroke-width:45.47299957;stroke-linecap:butt;stroke-linejoin:miter;stroke-miterlimit:4;stroke-dasharray:none;stroke-dashoffset:0;stroke-opacity:1;color-rendering:auto;image-rendering:auto;shape-rendering:auto;text-rendering:auto;enable-background:accumulate" />
  </g>
</svg>
